<svg width="24" height="25" viewBox="0 0 24 25" fill="none" xmlns="http://www.w3.org/2000/svg">
<path d="M21.2099 16.7579C20.5737 18.2624 19.5787 19.5881 18.3118 20.6192C17.0449 21.6503 15.5447 22.3553 13.9424 22.6727C12.34 22.99 10.6843 22.91 9.12006 22.4397C7.55578 21.9693 6.13054 21.1229 4.96893 19.9745C3.80733 18.8261 2.94473 17.4106 2.45655 15.8518C1.96837 14.293 1.86948 12.6384 2.16851 11.0325C2.46755 9.42666 3.15541 7.9185 4.17196 6.63991C5.18851 5.36131 6.5028 4.35119 7.99992 3.69788" stroke="#21A038" stroke-width="2" stroke-linecap="round" stroke-linejoin="round"/>
<path d="M22 12.8679C22 11.5547 21.7413 10.2543 21.2388 9.04109C20.7362 7.82783 19.9997 6.72544 19.0711 5.79685C18.1425 4.86827 17.0401 4.13167 15.8268 3.62912C14.6136 3.12658 13.3132 2.86792 12 2.86792V12.8679H22Z" stroke="#21A038" stroke-width="2" stroke-linecap="round" stroke-linejoin="round"/>
</svg>
