<svg width="24" height="25" viewBox="0 0 24 25" fill="none" xmlns="http://www.w3.org/2000/svg">
<path d="M18 8.86792C18 7.27662 17.3679 5.7505 16.2426 4.62528C15.1174 3.50006 13.5913 2.86792 12 2.86792C10.4087 2.86792 8.88258 3.50006 7.75736 4.62528C6.63214 5.7505 6 7.27662 6 8.86792C6 15.8679 3 17.8679 3 17.8679H21C21 17.8679 18 15.8679 18 8.86792Z" stroke="#21A038" stroke-width="2" stroke-linecap="round" stroke-linejoin="round"/>
<path d="M13.73 21.8679C13.5542 22.171 13.3019 22.4226 12.9982 22.5975C12.6946 22.7723 12.3504 22.8644 12 22.8644C11.6496 22.8644 11.3054 22.7723 11.0018 22.5975C10.6982 22.4226 10.4458 22.171 10.27 21.8679" stroke="#21A038" stroke-width="2" stroke-linecap="round" stroke-linejoin="round"/>
</svg>
