<svg width="24" height="25" viewBox="0 0 24 25" fill="none" xmlns="http://www.w3.org/2000/svg">
<path d="M20 7.11694H4C2.89543 7.11694 2 8.01237 2 9.11694V19.1169C2 20.2215 2.89543 21.1169 4 21.1169H20C21.1046 21.1169 22 20.2215 22 19.1169V9.11694C22 8.01237 21.1046 7.11694 20 7.11694Z" stroke="#21A038" stroke-width="2" stroke-linecap="round" stroke-linejoin="round"/>
<path d="M16 21.1169V5.11694C16 4.58651 15.7893 4.0778 15.4142 3.70273C15.0391 3.32766 14.5304 3.11694 14 3.11694H10C9.46957 3.11694 8.96086 3.32766 8.58579 3.70273C8.21071 4.0778 8 4.58651 8 5.11694V21.1169" stroke="#21A038" stroke-width="2" stroke-linecap="round" stroke-linejoin="round"/>
</svg>
