<svg width="12" height="15" viewBox="0 0 12 15" fill="none" xmlns="http://www.w3.org/2000/svg">
<path fill-rule="evenodd" clip-rule="evenodd" d="M11.094 4.61577C10.9192 2.97771 9.35284 2.42855 7.37525 2.27213L7.3752 -0.00012207L5.84277 0.000115237L5.84286 2.21248C5.44053 2.21244 5.02884 2.21962 4.61982 2.22699L4.62005 -2.67472e-05L3.08885 -6.68757e-05L3.08828 2.27154C2.75659 2.27765 2.43086 2.28322 2.11324 2.28341L2.11304 2.27636L0 2.27571L0.000402579 3.75291C0.000402579 3.75291 1.13174 3.73344 1.11294 3.75225C1.73349 3.75241 1.93587 4.07756 1.99421 4.35831L1.99434 6.94689C2.03716 6.9471 2.09303 6.9487 2.15628 6.95653L1.99485 6.95662L1.99405 10.5831C1.96682 10.7594 1.85202 11.0405 1.41847 11.0412C1.43807 11.0568 0.304802 11.0409 0.304802 11.0409L0.000505093 12.693L1.99463 12.6929C2.21982 12.6931 2.44281 12.6953 2.66336 12.6975C2.80618 12.6989 2.94798 12.7003 3.08868 12.7011L3.08943 14.9996L4.61981 14.9998L4.62017 12.7259C5.03996 12.7338 5.4466 12.7369 5.8436 12.7365L5.84294 14.9999L7.37496 14.9997L7.37544 12.7057C9.95108 12.5723 11.7542 11.9864 11.9773 9.80334C12.1581 8.04506 11.2423 7.26042 9.78015 6.94308C10.6682 6.53401 11.2239 5.81445 11.094 4.61577ZM8.95025 9.52979C8.95065 11.1061 6.20727 11.0714 4.95317 11.0555C4.84087 11.0541 4.7405 11.0528 4.65512 11.0528L4.65551 8.00796C4.75988 8.00798 4.88664 8.00528 5.03024 8.00222C6.31555 7.97482 8.94925 7.91877 8.95025 9.52979ZM4.90756 6.61694C5.9546 6.63241 8.23687 6.66613 8.23731 5.23398C8.23751 3.76889 6.04182 3.82155 4.96949 3.84727C4.84893 3.85016 4.74258 3.85271 4.65514 3.85272L4.65505 6.61429C4.72722 6.61428 4.81228 6.61553 4.90756 6.61694Z" fill="white"/>
</svg>
