<svg width="16" height="16" viewBox="0 0 16 16" fill="none" xmlns="http://www.w3.org/2000/svg">
<path fill-rule="evenodd" clip-rule="evenodd" d="M4.89395 6.72289L8.00154 3.61665L11.1104 6.72541L12.9176 4.91702L8.00154 -0.00012207L3.0855 4.91576L4.89395 6.72289ZM0 8.00015L1.80778 6.19242L3.61557 8.00015L1.80778 9.80788L0 8.00015ZM8.0019 12.3844L4.89431 9.27686L3.08333 11.0827L3.08586 11.0852L8.0019 15.9999L12.9179 11.0827L12.9192 11.0815L11.1108 9.27559L8.0019 12.3844ZM12.3845 8.00058L14.1923 6.19286L16.0001 8.00058L14.1923 9.80831L12.3845 8.00058ZM8.00161 6.16427L9.83533 7.99919H9.8366L9.83533 8.00046L8.00161 9.83538L6.16789 8.00298L6.16536 7.99919L6.16789 7.99667L6.48889 7.67568L6.64559 7.52024L8.00161 6.16427Z" fill="white"/>
</svg>
