<svg width="14" height="16" viewBox="0 0 14 16" fill="none" xmlns="http://www.w3.org/2000/svg">
<path fill-rule="evenodd" clip-rule="evenodd" d="M6.78831 -0.00012207C10.0899 0.0290446 12.591 2.23278 13.0753 5.1618C13.6229 8.4734 11.3756 11.6306 8.06795 12.2009C7.62144 12.278 7.16513 12.3082 6.71184 12.334C5.79306 12.3864 4.86376 13.0085 4.64813 14.2285C4.58626 14.5786 4.50354 14.925 4.42893 15.2728C4.32049 15.7779 3.89246 16.0779 3.41877 15.9821C2.92918 15.8832 2.64625 15.445 2.75213 14.9305C2.88746 14.273 3.03251 13.6174 3.17333 12.961C3.66555 10.6667 4.15898 8.37268 4.64896 6.07788C4.76175 5.54962 5.07366 5.26106 5.54217 5.27016C6.06135 5.28026 6.4603 5.75932 6.35318 6.26787C6.09658 7.4862 5.82892 8.7022 5.56626 9.91924C5.51547 10.1546 5.46872 10.3909 5.4172 10.6262C5.39644 10.7209 5.41292 10.7685 5.52593 10.7558C6.22274 10.6771 6.92123 10.612 7.61677 10.5238C9.4685 10.2888 11.0194 8.81479 11.3542 6.98391C11.8014 4.53891 10.222 2.251 7.77405 1.79785C5.33138 1.34562 2.9275 3.09409 2.60062 5.55715C2.51066 6.23502 2.57171 6.89636 2.78549 7.54473C2.95097 8.04658 2.72306 8.5445 2.25965 8.69179C1.77541 8.84568 1.30634 8.58541 1.14427 8.07288C0.0369822 4.57135 2.0775 0.988172 5.66279 0.158936C6.09723 0.0584782 6.54897 0.0325145 6.78831 -0.00012207Z" fill="white"/>
<path fill-rule="evenodd" clip-rule="evenodd" d="M6.20069 14.969C6.20254 14.3947 6.6413 13.9575 7.21608 13.9574C7.79715 13.9573 8.24753 14.4086 8.23944 14.9829C8.2314 15.5555 7.78743 15.9959 7.21807 15.9962C6.63607 15.9965 6.1988 15.555 6.20069 14.969Z" fill="black"/>
</svg>
