<svg width="20" height="20" viewBox="0 0 20 20" fill="none" xmlns="http://www.w3.org/2000/svg">
<path d="M11.1062 12.0227L10.403 9.87475L11.2816 8.70588L10.8689 7.44314L10.8418 7.42278L9.97695 8.57336L8.79621 4.96664L6.47929 6.47126L8.01794 11.1796L7.33753 12.0847L7.76361 13.3861L8.44351 12.4817L9.35028 15.2565L15.5165 11.2521L14.9556 9.52292L11.1062 12.0227Z" fill="white"/>
<path fill-rule="evenodd" clip-rule="evenodd" d="M10 18.9999C14.9706 18.9999 19 14.9704 19 9.99988C19 5.02931 14.9706 0.999878 10 0.999878C5.02944 0.999878 1 5.02931 1 9.99988C1 14.9704 5.02944 18.9999 10 18.9999Z" stroke="white"/>
</svg>
