<svg width="19" height="22" viewBox="0 0 19 22" fill="none" xmlns="http://www.w3.org/2000/svg">
<g clip-path="url(#clip0)">
<path d="M7.45096 5.00607C7.21388 4.97201 7.2026 4.96066 7.31549 4.94931C7.52999 4.91525 8.02672 4.96066 8.37669 5.04012C9.18952 5.2331 9.92333 5.73259 10.7023 6.60669L10.9055 6.84508L11.199 6.79967C12.4522 6.59533 13.7391 6.75426 14.8116 7.25374C15.1052 7.38997 15.568 7.66241 15.6245 7.73052C15.647 7.75323 15.6809 7.9008 15.7035 8.04838C15.7825 8.58192 15.7486 8.97924 15.5793 9.28574C15.489 9.45602 15.489 9.50142 15.5454 9.649C15.5906 9.76252 15.7261 9.84198 15.8502 9.84198C16.1212 9.84198 16.4034 9.41061 16.5389 8.80896L16.5953 8.57057L16.697 8.68408C17.2727 9.33114 17.7243 10.2279 17.792 10.8637L17.8146 11.0339L17.713 10.8864C17.5437 10.6253 17.3856 10.455 17.1711 10.3074C16.7873 10.0463 16.3809 9.96685 15.3084 9.91009C14.3375 9.85333 13.7843 9.77387 13.2424 9.59224C12.3167 9.28574 11.8425 8.88842 10.7475 7.42402C10.262 6.77696 9.9572 6.42505 9.65239 6.12991C8.98631 5.48285 8.32024 5.14229 7.45096 5.00607Z" fill="white"/>
<path d="M15.8616 6.44775C15.8842 6.01638 15.9407 5.73258 16.0648 5.47149C16.11 5.36932 16.1552 5.2785 16.1665 5.2785C16.1777 5.2785 16.1552 5.35797 16.1213 5.44878C16.031 5.69852 16.0197 6.05043 16.0761 6.44775C16.1552 6.95859 16.189 7.0267 16.7309 7.58294C16.9793 7.84404 17.2728 8.17324 17.3857 8.30946L17.5776 8.55921L17.3857 8.37758C17.1486 8.15054 16.6067 7.71916 16.4826 7.6624C16.4035 7.617 16.3922 7.617 16.3358 7.67376C16.2906 7.71916 16.2793 7.78728 16.2793 8.11648C16.2681 8.62732 16.2003 8.94517 16.031 9.27438C15.9407 9.44465 15.9294 9.4106 16.0084 9.21762C16.0648 9.07004 16.0761 9.00193 16.0761 8.5138C16.0761 7.52618 15.9632 7.28779 15.2746 6.89047C15.1052 6.78831 14.8117 6.64073 14.6424 6.56127C14.4618 6.48181 14.3263 6.41369 14.3376 6.41369C14.3602 6.39099 15.0262 6.58397 15.2859 6.69749C15.681 6.85642 15.7487 6.86777 15.7939 6.85642C15.8278 6.82236 15.8503 6.73155 15.8616 6.44775Z" fill="white"/>
<path d="M7.91398 8.13919C7.43983 7.48078 7.13502 6.45911 7.20275 5.69853L7.22533 5.46014L7.33823 5.48285C7.54144 5.5169 7.89141 5.65313 8.06075 5.75529C8.51232 6.02774 8.71553 6.40235 8.90745 7.33321C8.9639 7.60565 9.04292 7.92351 9.07679 8.02568C9.13324 8.19595 9.34773 8.59327 9.52836 8.84301C9.65255 9.02464 9.57352 9.11546 9.29129 9.09275C8.86229 9.04735 8.28653 8.65003 7.91398 8.13919Z" fill="white"/>
<path d="M15.2858 13.0773C13.0505 12.1691 12.2603 11.3858 12.2603 10.0577C12.2603 9.86468 12.2715 9.70575 12.2715 9.70575C12.2828 9.70575 12.3619 9.77386 12.4635 9.85332C12.915 10.2166 13.4231 10.3755 14.8342 10.5798C15.6584 10.7047 16.1325 10.7955 16.5615 10.9431C17.9275 11.3972 18.7742 12.328 18.9774 13.5881C19.0339 13.9514 19 14.6438 18.9097 15.0071C18.8307 15.2909 18.6049 15.8131 18.5484 15.8244C18.5371 15.8244 18.5146 15.7677 18.5146 15.6769C18.492 15.2001 18.2549 14.746 17.8598 14.3941C17.3856 13.9854 16.776 13.6789 15.2858 13.0773Z" fill="white"/>
<path d="M13.7053 13.4519C13.6827 13.2817 13.6262 13.066 13.5924 12.9751L13.5359 12.8049L13.6375 12.9297C13.7843 13.1 13.8972 13.3044 13.9988 13.5882C14.0778 13.8038 14.0778 13.872 14.0778 14.2239C14.0778 14.5644 14.0665 14.6439 13.9988 14.8369C13.8859 15.1434 13.7504 15.359 13.5246 15.5974C13.1182 16.0175 12.5876 16.2445 11.8312 16.3467C11.6958 16.358 11.3119 16.3921 10.9732 16.4148C10.1265 16.4602 9.56207 16.551 9.05405 16.7326C8.98631 16.7553 8.91858 16.778 8.90729 16.7667C8.88471 16.744 9.23468 16.5396 9.51691 16.4034C9.91204 16.2104 10.3185 16.1083 11.2103 15.9493C11.6506 15.8812 12.1022 15.7904 12.2151 15.745C13.3327 15.3931 13.8859 14.519 13.7053 13.4519Z" fill="white"/>
<path d="M14.7325 15.2796C14.439 14.6325 14.3712 14.0195 14.5293 13.4405C14.5518 13.3838 14.5744 13.327 14.597 13.327C14.6196 13.327 14.6873 13.3611 14.7551 13.4065C14.8905 13.4973 15.1728 13.6562 15.8953 14.0535C16.8097 14.553 17.329 14.939 17.6903 15.3817C18.0064 15.7677 18.1983 16.2104 18.2886 16.7553C18.3451 17.0618 18.3112 17.7997 18.2322 18.1062C17.9838 19.0711 17.4193 19.843 16.5952 20.2857C16.471 20.3539 16.3694 20.3993 16.3581 20.3993C16.3468 20.3993 16.392 20.2857 16.4597 20.1495C16.7307 19.5706 16.7646 19.0143 16.5613 18.39C16.4372 18.004 16.1775 17.5386 15.6582 16.7553C15.0373 15.8472 14.8905 15.6088 14.7325 15.2796Z" fill="white"/>
<path d="M6.32204 18.7532C7.15745 18.0494 8.18478 17.5499 9.13309 17.391C9.53951 17.3229 10.2169 17.3456 10.5894 17.4477C11.1878 17.6067 11.7296 17.9472 12.0119 18.3672C12.2828 18.7759 12.407 19.1278 12.5312 19.9111C12.5763 20.2176 12.6328 20.5355 12.6441 20.6036C12.7344 21.0122 12.915 21.3301 13.1408 21.5004C13.4908 21.7615 14.1004 21.7728 14.6987 21.5458C14.8004 21.5117 14.8907 21.4777 14.8907 21.489C14.9132 21.5117 14.6084 21.7161 14.4052 21.8182C14.123 21.9658 13.8972 22.0112 13.5924 22.0112C13.0505 22.0112 12.5876 21.7274 12.2151 21.1598C12.1361 21.0463 11.978 20.7171 11.8425 20.4106C11.4474 19.4911 11.2442 19.2186 10.7813 18.9121C10.3749 18.651 9.85561 18.5943 9.46048 18.7873C8.94117 19.037 8.8057 19.7068 9.16696 20.1154C9.31372 20.2857 9.58466 20.4219 9.81045 20.456C10.2282 20.5128 10.5894 20.1836 10.5894 19.7635C10.5894 19.4911 10.4878 19.3322 10.2169 19.2073C9.85561 19.0484 9.46048 19.23 9.47177 19.5819C9.47177 19.7295 9.53951 19.8203 9.68627 19.8884C9.77658 19.9338 9.77658 19.9338 9.70885 19.9225C9.38146 19.8543 9.30243 19.4457 9.56208 19.1846C9.87819 18.8667 10.5443 19.003 10.77 19.4457C10.8604 19.6273 10.8717 19.9906 10.7926 20.2176C10.6007 20.7171 10.0588 20.9782 9.50564 20.8306C9.13309 20.7284 8.97504 20.6263 8.52346 20.1609C7.73321 19.3435 7.4284 19.1846 6.29946 19.0143L6.08496 18.9803L6.32204 18.7532Z" fill="white"/>
<path fill-rule="evenodd" clip-rule="evenodd" d="M0.383364 0.48801C3.01379 3.7006 7.06667 8.69544 7.26988 8.96789C7.43922 9.19493 7.37148 9.41061 7.08925 9.56954C6.93119 9.66035 6.6038 9.75117 6.44575 9.75117C6.26512 9.75117 6.05062 9.66035 5.90386 9.51278C5.80226 9.41061 5.36197 8.76355 4.36851 7.20834C3.61212 6.01639 2.96863 5.02877 2.95734 5.01742C2.91218 4.99472 2.91218 4.99472 4.28948 7.46944C5.15876 9.02465 5.441 9.58089 5.441 9.649C5.441 9.79658 5.39584 9.87604 5.21521 10.0804C4.9104 10.4209 4.77493 10.8069 4.67332 11.6129C4.56043 12.5097 4.25562 13.1454 3.38633 14.2238C2.87831 14.8595 2.79929 14.973 2.6751 15.2341C2.51705 15.552 2.4719 15.7336 2.44932 16.1423C2.42674 16.5737 2.4719 16.8461 2.59608 17.2548C2.70897 17.618 2.83316 17.8564 3.13797 18.3219C3.39762 18.7305 3.55568 19.037 3.55568 19.1506C3.55568 19.2414 3.57825 19.2414 3.98467 19.1506C4.95556 18.9235 5.7571 18.5375 6.19739 18.0608C6.46833 17.7656 6.53607 17.6067 6.53607 17.198C6.53607 16.9369 6.52478 16.8802 6.45704 16.7212C6.34415 16.4715 6.12965 16.2672 5.66679 15.9493C5.05716 15.5293 4.79751 15.1887 4.72977 14.7347C4.67332 14.3487 4.74106 14.0876 5.07974 13.3724C5.42971 12.6346 5.52002 12.3281 5.57647 11.5788C5.61034 11.102 5.66679 10.9091 5.80226 10.7615C5.94902 10.6026 6.0732 10.5458 6.42317 10.5004C6.99893 10.4209 7.37148 10.2734 7.665 9.98956C7.92466 9.75117 8.03755 9.51278 8.04884 9.16087L8.06013 8.89978L7.91337 8.74085C7.38277 8.12785 0.0333937 -0.00012207 -0.000474406 -0.00012207C-0.0117638 -0.00012207 0.168866 0.215564 0.383364 0.48801ZM3.8492 16.6304C3.97338 16.4147 3.90565 16.1423 3.70244 16.0061C3.51052 15.8812 3.21699 15.938 3.21699 16.1082C3.21699 16.1536 3.23957 16.1991 3.30731 16.2218C3.40891 16.2785 3.4202 16.3353 3.34118 16.4601C3.26215 16.585 3.26215 16.6985 3.36376 16.778C3.52181 16.9029 3.7363 16.8348 3.8492 16.6304Z" fill="white"/>
<path fill-rule="evenodd" clip-rule="evenodd" d="M8.4217 10.6593C8.15076 10.7388 7.8911 11.034 7.81208 11.3291C7.76692 11.5107 7.7895 11.8399 7.86852 11.9421C7.99271 12.101 8.1056 12.1464 8.4217 12.1464C9.04262 12.1464 9.57322 11.874 9.62967 11.5448C9.68611 11.2723 9.44904 10.8977 9.12164 10.7275C8.9523 10.6366 8.60233 10.6026 8.4217 10.6593ZM9.14422 11.2269C9.23454 11.0907 9.20067 10.9431 9.03133 10.841C8.72652 10.648 8.26365 10.8069 8.26365 11.1021C8.26365 11.2496 8.50073 11.4086 8.72652 11.4086C8.87328 11.4086 9.07649 11.3177 9.14422 11.2269Z" fill="white"/>
</g>
<defs>
<clipPath id="clip0">
<rect width="19" height="22" fill="white" transform="translate(0 -0.00012207)"/>
</clipPath>
</defs>
</svg>
