<svg width="19" height="16" viewBox="0 0 19 16" fill="none" xmlns="http://www.w3.org/2000/svg">
<path fill-rule="evenodd" clip-rule="evenodd" d="M9.92085 0.684021C10.1194 0.306965 9.66328 -0.149572 9.28965 0.047225C8.98571 0.169563 8.90856 0.613978 9.14514 0.838827C9.36842 1.07311 9.80557 0.991381 9.92085 0.684021ZM5.76248 0.850386C5.78563 0.600516 5.49831 0.390473 5.27134 0.484845C4.9554 0.569866 4.92034 1.07246 5.22685 1.19238C5.4582 1.32129 5.78657 1.12164 5.76248 0.850386ZM13.5017 1.19997C13.1471 1.15668 13.0909 0.593393 13.4324 0.479973C13.6973 0.349497 13.9403 0.594172 13.979 0.847765C13.9235 1.0643 13.744 1.26257 13.5017 1.19997ZM7.04802 2.77628C7.10639 2.33109 6.56493 1.97005 6.18547 2.21247C5.8301 2.39602 5.78125 2.94364 6.1037 3.18234C6.43722 3.48624 7.02831 3.22581 7.04802 2.77628ZM11.9782 2.46973C12.1475 2.02904 12.8335 2.0157 13.0262 2.44471C13.2166 2.77856 12.9824 3.19198 12.643 3.30549C12.1935 3.39025 11.7666 2.89943 11.9782 2.46973ZM9.50058 2.5936C9.14418 2.6194 8.8026 2.90165 8.80629 3.28044C8.78597 3.58996 9.00489 3.84277 9.26486 3.97169C9.29103 3.97328 9.31753 3.9754 9.34423 3.97754C9.49106 3.98932 9.64358 4.00155 9.77572 3.92676C10.1172 3.7742 10.285 3.31654 10.096 2.98416C9.99463 2.74321 9.73698 2.64147 9.50058 2.5936ZM2.82942 3.83246C3.17605 3.61722 3.6437 4.01003 3.51247 4.39038C3.44022 4.71938 3.00239 4.85323 2.7521 4.64319C2.48493 4.44639 2.52727 3.97323 2.82942 3.83246ZM16.4073 4.24073C16.4423 3.86567 15.957 3.60108 15.6629 3.83173C15.3611 4.01891 15.394 4.51857 15.7155 4.66454C16.0074 4.84064 16.427 4.58272 16.4073 4.24073ZM10.4867 4.51263C10.9721 4.33652 11.5485 4.54726 11.8251 4.98431C12.19 5.5186 11.9958 6.33228 11.4296 6.63886C10.8429 7.00146 9.98617 6.6941 9.76948 6.03228C9.52348 5.43981 9.88186 4.69834 10.4867 4.51263ZM9.16086 5.08536C8.90106 4.5296 8.1772 4.31445 7.63934 4.5709C7.06608 4.82951 6.80234 5.59237 7.09934 6.15401C7.3642 6.73479 8.13631 6.9728 8.6836 6.65886C9.2302 6.37955 9.4666 5.62631 9.16086 5.08536ZM4.7877 5.55557C4.82858 5.20553 5.1555 4.97773 5.48533 4.95418C5.8407 4.99747 6.12459 5.27626 6.16324 5.63955C6.13993 5.99921 5.86479 6.35072 5.48747 6.34856C5.07236 6.38466 4.70841 5.96752 4.7877 5.55557ZM14.2081 5.63896C14.2271 5.14441 13.6353 4.77965 13.2091 5.03021C12.7516 5.24814 12.7172 5.96892 13.1581 6.22485C13.5824 6.53221 14.2374 6.16294 14.2081 5.63896ZM6.48059 6.87699C6.97902 6.73847 7.54894 6.97578 7.7934 7.43855C8.06117 7.90435 7.95171 8.55145 7.53582 8.8931C7.00242 9.39422 6.01868 9.19301 5.73479 8.50912C5.40856 7.88219 5.80482 7.04202 6.48059 6.87699ZM13.1952 7.36897C12.9347 6.92308 12.3655 6.73443 11.881 6.87443C11.2001 7.06274 10.8396 7.93529 11.1979 8.55269C11.4934 9.14958 12.3254 9.35001 12.8625 8.96828C13.3752 8.63953 13.5396 7.87893 13.1952 7.36897ZM3.27477 7.45625C3.70531 7.29175 4.18257 7.77166 4.00814 8.20283C3.9016 8.59564 3.35354 8.74084 3.07043 8.45123C2.73914 8.17928 2.8618 7.57417 3.27477 7.45625ZM15.559 7.38253C15.1932 7.40245 14.9322 7.72158 14.9446 8.08193C15.0161 8.24998 15.1029 8.42539 15.2722 8.51232C15.6334 8.71353 16.1442 8.42245 16.1172 7.99422C16.1406 7.66998 15.8538 7.42972 15.559 7.38253ZM1.15759 7.66768C1.41661 7.55348 1.73702 7.78023 1.67787 8.0708C1.66399 8.3998 1.18313 8.52629 1.00647 8.2514C0.850385 8.06049 0.943813 7.76612 1.15759 7.66768ZM18.0369 7.83953C17.9647 7.62429 17.672 7.53001 17.4896 7.66117C17.1861 7.82472 17.3051 8.39078 17.6728 8.35693C17.9348 8.39667 18.1595 8.07459 18.0369 7.83953ZM7.8876 9.24051C8.5692 9.06146 9.30188 9.63557 9.30617 10.3445C9.35066 11.0609 8.62903 11.6961 7.93131 11.5306C7.39199 11.4429 6.96882 10.9182 6.98631 10.3677C6.98485 9.8412 7.37819 9.35185 7.8876 9.24051ZM12.0224 10.3534C12.0333 9.62813 11.2788 9.04372 10.587 9.23904C10.1769 9.34198 9.82954 9.68346 9.73894 10.1034C9.55945 10.7335 10.0338 11.4469 10.6767 11.5309C11.3598 11.6704 12.0589 11.0565 12.0224 10.3534ZM5.38244 9.67537C5.86116 9.59286 6.30996 10.1323 6.11582 10.5915C5.97422 11.0807 5.2693 11.2135 4.95764 10.8138C4.59207 10.43 4.86498 9.72835 5.38244 9.67537ZM14.216 10.3573C14.2489 9.88935 13.7249 9.51636 13.298 9.69697C12.7821 9.86259 12.6961 10.6571 13.1689 10.927C13.5863 11.2277 14.2332 10.8725 14.216 10.3573ZM15.5112 11.9386C15.344 11.6239 15.6476 11.2068 15.9936 11.265C16.1563 11.2623 16.2727 11.3844 16.3781 11.4949L16.3964 11.5141L16.4004 11.546C16.4228 11.7255 16.4484 11.9312 16.3038 12.0668C16.0957 12.3329 15.6242 12.257 15.5112 11.9386ZM3.54386 11.8413C3.61655 11.4595 3.15129 11.1353 2.82797 11.3527C2.52 11.5112 2.50903 12.0064 2.80672 12.1804C3.08409 12.372 3.5052 12.179 3.54386 11.8413ZM9.21543 12.0596C9.63868 11.8709 10.1779 12.2431 10.1378 12.714C10.1692 13.2344 9.50223 13.5947 9.0884 13.2822C8.62871 13.0139 8.70534 12.2246 9.21543 12.0596ZM7.06866 13.3035C7.10148 12.8959 6.61771 12.565 6.2572 12.7566C6.00322 12.8525 5.89968 13.1355 5.89522 13.3896C5.98205 13.6228 6.15863 13.868 6.4294 13.8739C6.75631 13.9233 7.07963 13.6381 7.06866 13.3035ZM12.2497 12.7625C12.6204 12.5311 13.1473 12.8635 13.1122 13.2993C13.1217 13.7548 12.5263 14.0466 12.1811 13.7474C11.8469 13.5128 11.8877 12.949 12.2497 12.7625ZM13.5888 14.7517C13.3211 14.8092 13.1269 15.1129 13.2918 15.3649C13.4611 15.6575 13.9552 15.5529 13.9866 15.2117C14.0318 14.9595 13.8042 14.796 13.5888 14.7517ZM5.01911 15.146C5.08477 14.9463 5.24385 14.7477 5.47665 14.7997C5.816 14.824 5.91671 15.3406 5.61971 15.4999C5.35262 15.6818 5.04277 15.4327 5.01911 15.146ZM9.70351 15.0929C9.45391 14.9359 9.07523 15.0797 9.01025 15.3752C8.89154 15.6737 9.17663 16.0346 9.49265 15.9972C9.66271 16.0016 9.79403 15.8792 9.8962 15.7569C9.91608 15.6744 9.93631 15.5918 9.95894 15.5093L9.95754 15.504C9.91552 15.3467 9.86661 15.1636 9.70351 15.0929Z" fill="white"/>
</svg>
