<svg width="15" height="14" viewBox="0 0 15 14" fill="none" xmlns="http://www.w3.org/2000/svg">
<path d="M5.98797 5.98211V2.93055H1.84912V0.255737H13.4147V2.96823H9.27583V5.98211H5.98797Z" fill="white"/>
<path fill-rule="evenodd" clip-rule="evenodd" d="M0.0693359 6.32116C0.0693359 5.30398 3.39588 4.47516 7.53473 4.47516C11.6736 4.47516 15.0001 5.30398 15.0001 6.32116C15.0001 7.33834 11.6736 8.16716 7.53473 8.16716C3.39588 8.16716 0.0693359 7.33834 0.0693359 6.32116ZM14.3812 6.32117C14.1104 5.94443 11.8669 4.77655 7.5347 4.77655C3.20245 4.77655 0.958966 5.90676 0.6882 6.32117C0.958966 6.6979 3.20245 7.263 7.5347 7.263C11.9056 7.263 14.1104 6.6979 14.3812 6.32117Z" fill="white"/>
<path d="M9.27555 6.92389V4.81418C8.73402 4.7765 8.15381 4.73883 7.5736 4.73883C7.03207 4.73883 6.52922 4.73883 6.02637 4.7765V6.88622C6.49054 6.88622 7.03207 6.92389 7.5736 6.92389C8.15381 6.96157 8.73402 6.96157 9.27555 6.92389Z" fill="white"/>
<path d="M7.53502 8.16708C6.99349 8.16708 6.49064 8.16708 5.98779 8.12941V13.7428H9.23698V8.09174C8.69545 8.12941 8.11524 8.16708 7.53502 8.16708Z" fill="white"/>
</svg>
