<svg width="10" height="15" viewBox="0 0 10 15" fill="none" xmlns="http://www.w3.org/2000/svg">
<path d="M0.512 9.94388L2.912 9.67188C3.008 10.0345 3.18933 10.3332 3.456 10.5679C3.72267 10.8025 4.06933 10.9572 4.496 11.0319V8.58388C3.22667 8.41321 2.28267 8.07188 1.664 7.55988C1.056 7.03721 0.752 6.27988 0.752 5.28788C0.752 4.29588 1.09867 3.52254 1.792 2.96788C2.48533 2.40254 3.38667 2.07721 4.496 1.99188V0.567878H5.952V1.99188C7.09333 2.09854 7.96267 2.42388 8.56 2.96788C9.15733 3.50121 9.53067 4.21054 9.68 5.09588L7.344 5.31988C7.25867 5.02121 7.104 4.76521 6.88 4.55188C6.66667 4.32788 6.35733 4.17321 5.952 4.08788V6.55188C7.25333 6.74388 8.208 7.09588 8.816 7.60788C9.424 8.11988 9.728 8.86121 9.728 9.83188C9.728 10.8452 9.392 11.6239 8.72 12.1679C8.048 12.7119 7.12533 13.0319 5.952 13.1279V14.5519H4.496V13.1439C3.33333 13.0692 2.41067 12.7705 1.728 12.2479C1.056 11.7145 0.650667 10.9465 0.512 9.94388ZM3.136 5.19188C3.136 5.49054 3.232 5.72521 3.424 5.89588C3.62667 6.06654 3.984 6.20521 4.496 6.31188V4.05588C4.06933 4.11988 3.73333 4.25321 3.488 4.45588C3.25333 4.64788 3.136 4.89321 3.136 5.19188ZM7.344 9.95988C7.344 9.65054 7.248 9.40521 7.056 9.22388C6.864 9.04254 6.496 8.89854 5.952 8.79188V11.0639C6.42133 10.9999 6.768 10.8772 6.992 10.6959C7.22667 10.5039 7.344 10.2585 7.344 9.95988Z" fill="white"/>
</svg>
