<svg width="17" height="16" viewBox="0 0 17 16" fill="none" xmlns="http://www.w3.org/2000/svg">
<path d="M5.89674 8C5.89674 6.61934 7.0623 5.4998 8.50049 5.4998C9.93868 5.4998 11.1049 6.61934 11.1049 8C11.1049 9.38066 9.93868 10.5002 8.50049 10.5002C7.0623 10.5002 5.89674 9.38066 5.89674 8ZM4.48886 8C4.48886 10.127 6.28486 11.8512 8.50049 11.8512C10.7161 11.8512 12.5121 10.127 12.5121 8C12.5121 5.873 10.7161 4.14884 8.50049 4.14884C6.28486 4.14884 4.48886 5.873 4.48886 8ZM11.7334 3.99614C11.7334 4.17414 11.7883 4.34817 11.8912 4.49621C11.9942 4.64426 12.1405 4.75967 12.3118 4.82785C12.4831 4.89604 12.6716 4.91393 12.8535 4.87928C13.0353 4.84462 13.2024 4.75897 13.3336 4.63315C13.4647 4.50733 13.5541 4.347 13.5903 4.17243C13.6266 3.99787 13.6081 3.8169 13.5372 3.65242C13.4663 3.48794 13.3462 3.34733 13.1921 3.24838C13.038 3.14943 12.8567 3.09657 12.6713 3.0965H12.6709C12.4224 3.09661 12.1841 3.19142 12.0083 3.3601C11.8325 3.52878 11.7336 3.75754 11.7334 3.99614ZM5.34424 14.1048C4.58255 14.0715 4.16855 13.9497 3.89343 13.8468C3.52868 13.7105 3.26843 13.5481 2.9948 13.2858C2.72118 13.0235 2.5518 12.7739 2.41043 12.4237C2.30318 12.1597 2.1763 11.7622 2.14168 11.031C2.1038 10.2404 2.09624 10.0029 2.09624 8.00006C2.09624 5.9972 2.10443 5.76038 2.14168 4.96916C2.17636 4.23794 2.30418 3.84116 2.41043 3.57638C2.55243 3.22622 2.72155 2.97638 2.9948 2.7137C3.26805 2.45102 3.52805 2.28842 3.89343 2.1527C4.16843 2.04974 4.58255 1.92794 5.34424 1.8947C6.16774 1.85834 6.41511 1.85108 8.50049 1.85108C10.5859 1.85108 10.8335 1.85894 11.6577 1.8947C12.4194 1.928 12.8327 2.0507 13.1085 2.1527C13.4732 2.28842 13.7335 2.45138 14.0071 2.7137C14.2807 2.97602 14.4495 3.22622 14.5915 3.57638C14.6987 3.84038 14.8256 4.23794 14.8602 4.96916C14.8981 5.76038 14.9057 5.9972 14.9057 8.00006C14.9057 10.0029 14.8981 10.2397 14.8602 11.031C14.8256 11.7622 14.6981 12.1596 14.5915 12.4237C14.4495 12.7739 14.2804 13.0237 14.0071 13.2858C13.7339 13.5479 13.4732 13.7105 13.1085 13.8468C12.8335 13.9498 12.4194 14.0716 11.6577 14.1048C10.8342 14.1412 10.5868 14.1484 8.50049 14.1484C6.41418 14.1484 6.16749 14.1412 5.34424 14.1048ZM5.27955 0.54542C4.44786 0.58178 3.87955 0.70838 3.38324 0.89378C2.86924 1.08524 2.43411 1.3421 1.9993 1.75886C1.56449 2.17562 1.29761 2.594 1.09818 3.08744C0.905051 3.5642 0.773176 4.10948 0.735301 4.9079C0.696801 5.70758 0.687988 5.96324 0.687988 8C0.687988 10.0368 0.696801 10.2924 0.735301 11.0921C0.773176 11.8906 0.905051 12.4358 1.09818 12.9126C1.29761 13.4057 1.56455 13.8246 1.9993 14.2411C2.43405 14.6577 2.86924 14.9142 3.38324 15.1062C3.88049 15.2916 4.44786 15.4182 5.27955 15.4546C6.11299 15.4909 6.37886 15.5 8.50049 15.5C10.6221 15.5 10.8884 15.4915 11.7214 15.4546C12.5532 15.4182 13.1211 15.2916 13.6177 15.1062C14.1314 14.9142 14.5669 14.6579 15.0017 14.2411C15.4365 13.8244 15.7028 13.4057 15.9028 12.9126C16.0959 12.4358 16.2284 11.8905 16.2657 11.0921C16.3036 10.2918 16.3124 10.0368 16.3124 8C16.3124 5.96324 16.3036 5.70758 16.2657 4.9079C16.2278 4.10942 16.0959 3.5639 15.9028 3.08744C15.7028 2.5943 15.4358 2.17628 15.0017 1.75886C14.5676 1.34144 14.1314 1.08524 13.6184 0.89378C13.1211 0.70838 12.5531 0.58118 11.7221 0.54542C10.8891 0.50906 10.6227 0.5 8.50111 0.5C6.37949 0.5 6.11299 0.50846 5.27955 0.54542Z" fill="white"/>
</svg>
