<svg width="160" height="33" viewBox="0 0 160 33" fill="none" xmlns="http://www.w3.org/2000/svg">
<path fill-rule="evenodd" clip-rule="evenodd" d="M0 16.5C0 7.3873 7.42686 0 16.5884 0C25.7499 0 33.1767 7.3873 33.1767 16.5C33.1767 20.1582 31.9798 23.5384 29.9543 26.2742L27.252 23.5776C28.613 21.5528 29.4066 19.1186 29.4066 16.5C29.4066 9.45837 23.6677 3.75 16.5884 3.75C9.50902 3.75 3.77008 9.45837 3.77008 16.5V29.25H8.04284V16.5C8.04284 11.8056 11.8688 8 16.5884 8C21.3079 8 25.1339 11.8056 25.1339 16.5C25.1339 19.3188 23.7544 21.8171 21.6304 23.3635L24.0538 25.774L24.0493 25.7785L27.3418 29.0639C24.446 31.5185 20.6911 33 16.5884 33H0V16.5ZM21.3165 28.3546L17.8513 24.9078C17.4391 24.9685 17.0174 25 16.5884 25H11.8129V29.25H16.5884C18.2582 29.25 19.8535 28.9324 21.3165 28.3546ZM11.8129 21.25H16.5884C19.2258 21.25 21.3638 19.1234 21.3638 16.5C21.3638 13.8766 19.2258 11.75 16.5884 11.75C13.951 11.75 11.8129 13.8766 11.8129 16.5V21.25ZM40.5091 30.1472C42.0969 30.4352 43.7902 30.5793 45.589 30.5793C49.3643 30.5793 52.3179 29.6652 54.4498 27.837C56.826 25.7983 58.0141 22.8122 58.0141 18.8789C58.0141 15.3665 56.9481 12.6353 54.8162 10.6852C53.7613 9.71019 52.4456 8.9623 50.8688 8.44154C49.3032 7.9097 47.5488 7.64378 45.6057 7.64378C43.6736 7.64378 41.9748 7.73242 40.5091 7.9097V30.1472ZM47.0047 26.7235C46.283 26.7235 45.5613 26.657 44.8395 26.524V11.7157C45.0172 11.7046 45.1893 11.699 45.3558 11.699H45.8055C47.0603 11.699 48.1651 11.8486 49.12 12.1478C52.0181 13.0563 53.4671 15.4939 53.4671 19.4606C53.4671 21.876 52.812 23.7153 51.5017 24.9784C50.891 25.5767 50.1693 26.0199 49.3365 26.308C48.5037 26.585 47.7265 26.7235 47.0047 26.7235ZM61.6456 18.0146C61.2015 19.1226 60.9794 20.3248 60.9794 21.6211C60.9794 24.1917 61.9066 26.3024 63.7609 27.9533C65.6041 29.5932 67.9359 30.4131 70.7562 30.4131C71.267 30.4131 71.8 30.3798 72.3552 30.3134C74.2428 30.0918 75.6085 29.6929 76.4524 29.1167L76.6356 26.524C76.6689 26.0365 76.6967 25.5601 76.7189 25.0947C76.5524 25.2387 76.3025 25.3939 75.9694 25.5601C74.7036 26.1916 73.1879 26.5074 71.4224 26.5074C69.7347 26.5074 68.3634 26.1805 67.3085 25.5268C66.2537 24.862 65.5819 23.9369 65.2932 22.7513H71.156C74.5648 22.7513 76.8244 22.5962 77.9348 22.2859C78.068 21.9646 78.1346 21.3663 78.1346 20.491C78.1346 18.2085 77.4296 16.3138 76.0194 14.807C74.587 13.2447 72.6883 12.4636 70.3232 12.4636C67.525 12.4636 65.2599 13.3444 63.5277 15.1061C62.7171 15.9371 62.0898 16.9066 61.6456 18.0146ZM69.8069 15.9537C71.9499 15.9537 73.249 17.1448 73.7043 19.527C73.4156 19.5492 73.088 19.5658 72.7216 19.5769L71.3558 19.6268C70.8117 19.6378 70.2566 19.6434 69.6903 19.6434H68.7409C68.3634 19.6434 67.9692 19.6378 67.5584 19.6268H66.3259C65.9372 19.6157 65.6097 19.6046 65.3432 19.5935C65.4875 19.0617 65.6929 18.5742 65.9594 18.131C66.8366 16.6795 68.1191 15.9537 69.8069 15.9537ZM78.9681 12.796L84.8641 21.3054L78.8015 30.1638H84.0147L87.3125 24.5296L90.6436 30.1638H95.8068L89.6443 21.0062L95.074 13.2779C95.3072 12.9566 95.4293 12.796 95.4404 12.796H90.5937L87.2625 18.0977L84.1813 12.796H78.9681ZM96.9401 18.0811C96.5292 19.1891 96.3238 20.3525 96.3238 21.5713C96.3238 24.0975 97.0511 26.1639 98.5057 27.7705C100.105 29.5322 102.314 30.4131 105.135 30.4131C107.866 30.4131 110.059 29.5156 111.714 27.7207C113.279 26.0254 114.062 23.887 114.062 21.3054C114.062 18.7237 113.301 16.6241 111.78 15.0064C110.192 13.3112 108.049 12.4636 105.351 12.4636C102.642 12.4636 100.438 13.361 98.7389 15.156C97.9616 15.987 97.362 16.962 96.9401 18.0811ZM100.721 23.4992C100.488 22.8455 100.371 22.1696 100.371 21.4716C100.371 20.0422 100.76 18.829 101.537 17.8318C102.392 16.746 103.575 16.203 105.085 16.203C106.573 16.203 107.744 16.7127 108.599 17.7321C109.398 18.685 109.798 19.937 109.798 21.4882C109.798 23.0172 109.41 24.2582 108.632 25.211C107.833 26.1972 106.739 26.6902 105.351 26.6902C103.852 26.6902 102.642 26.1861 101.72 25.1778C101.287 24.7124 100.954 24.1529 100.721 23.4992ZM120.858 30.1638C120.814 29.8757 120.792 29.2552 120.792 28.3024V18.0645C121.125 17.5437 121.53 17.1282 122.007 16.818C122.496 16.4967 122.973 16.336 123.44 16.336C124.661 16.336 125.466 16.6795 125.855 17.3664L125.921 17.3166L126.221 12.8458C125.622 12.591 124.8 12.4636 123.756 12.4636C122.724 12.4636 121.735 13.0009 120.792 14.0757V12.796H116.711V30.1638H120.858ZM133.35 30.4131C135.027 30.4131 136.576 29.8258 137.997 28.6514V30.1638H142.261C142.172 29.7206 142.128 29.0115 142.128 28.0364V12.796H137.997V25.0781C137.198 26.031 136.143 26.5074 134.833 26.5074C134.389 26.5074 133.978 26.452 133.6 26.3412C132.357 25.9756 131.735 24.6515 131.735 22.369V12.7461C131.135 12.7793 130.652 12.796 130.286 12.796H128.903C128.348 12.796 127.815 12.7738 127.304 12.7295C127.349 12.8181 127.416 13.0286 127.504 13.361C127.604 13.6824 127.654 14.951 127.654 17.167V23.7651C127.654 25.8149 128.143 27.427 129.12 28.6015C130.141 29.8092 131.552 30.4131 133.35 30.4131ZM145.56 28.7012C147.147 29.8425 149.507 30.4131 152.638 30.4131C154.981 30.4131 156.808 29.8979 158.118 28.8674C159.373 27.8924 160 26.6237 160 25.0615C160 23.6322 159.6 22.4854 158.801 21.6211C158.368 21.1447 157.796 20.7403 157.085 20.4079C156.375 20.0644 155.331 19.7929 153.954 19.5935C152.588 19.3941 151.511 19.0838 150.723 18.6628C150.301 18.4412 150.09 18.1199 150.09 17.6988C150.09 16.48 151.1 15.8706 153.121 15.8706C153.599 15.8706 154.065 15.915 154.52 16.0036C155.997 16.2584 157.085 16.7903 157.785 17.5991C157.94 17.8318 158.029 17.9481 158.051 17.9481C158.062 17.9481 158.079 17.9038 158.101 17.8152L158.484 16.8346C158.606 16.5133 158.795 15.987 159.051 15.2557C159.139 14.9898 159.223 14.7128 159.3 14.4247C157.668 13.1173 155.697 12.4636 153.388 12.4636C151.056 12.4636 149.229 12.9511 147.908 13.9261C146.576 14.9122 145.909 16.2695 145.909 17.998C145.909 19.4162 146.381 20.563 147.325 21.4383C147.836 21.9037 148.497 22.3026 149.307 22.635C150.118 22.9674 151.156 23.2222 152.422 23.3995C153.699 23.5657 154.665 23.815 155.32 24.1474C155.686 24.3468 155.869 24.6515 155.869 25.0615C155.869 26.3357 154.909 26.9728 152.988 26.9728C151.556 26.9728 150.179 26.7456 148.857 26.2913C148.247 26.0808 147.708 25.8371 147.242 25.5601C146.775 25.2831 146.459 25.0504 146.292 24.862C146.126 24.6626 146.037 24.5739 146.026 24.5961C146.015 24.6072 145.998 24.7124 145.976 24.9119C145.954 25.1002 145.898 25.5878 145.809 26.3744L145.66 27.5711C145.615 27.9921 145.582 28.3688 145.56 28.7012Z" fill="url(#paint0_angular)"/>
<defs>
<radialGradient id="paint0_angular" cx="0" cy="0" r="1" gradientUnits="userSpaceOnUse" gradientTransform="translate(16.5885 16.4999) rotate(42.9469) scale(20.0547 20.0571)">
<stop offset="0.0397574" stop-color="#0A8CD1"/>
<stop offset="0.25484" stop-color="#0FA8E0"/>
<stop offset="0.42665" stop-color="#9AD062"/>
<stop offset="0.588542" stop-color="#D3EF27"/>
<stop offset="0.755208" stop-color="#8EC625"/>
<stop offset="0.89971" stop-color="#21A038"/>
</radialGradient>
</defs>
</svg>
