<svg width="25" height="25" viewBox="0 0 25 25" fill="none" xmlns="http://www.w3.org/2000/svg">
<path d="M10.992 15.236V14.132C10.992 13.7373 11.072 13.4173 11.232 13.172C11.4027 12.916 11.696 12.676 12.112 12.452L12.832 12.036C13.184 11.8333 13.4507 11.6253 13.632 11.412C13.824 11.1987 13.92 10.9053 13.92 10.532C13.92 10.1267 13.776 9.80133 13.488 9.556C13.2 9.3 12.784 9.172 12.24 9.172C11.632 9.172 11.1573 9.316 10.816 9.604C10.4853 9.88133 10.272 10.2493 10.176 10.708L8.336 10.436C8.464 9.56133 8.85333 8.84667 9.504 8.292C10.1653 7.73733 11.088 7.46 12.272 7.46C13.4667 7.46 14.3573 7.74267 14.944 8.308C15.5307 8.87333 15.824 9.59867 15.824 10.484C15.824 11.22 15.6587 11.7907 15.328 12.196C14.9973 12.5907 14.64 12.9 14.256 13.124L13.6 13.508C13.2907 13.6893 13.0773 13.86 12.96 14.02C12.8533 14.1693 12.8 14.3827 12.8 14.66V15.236H10.992ZM10.928 18.5V16.388H12.96V18.5H10.928Z" fill="#E0E0E0"/>
<rect x="0.75" y="0.75" width="23.5" height="23.5" rx="11.75" stroke="#E0E0E0" stroke-width="1.5"/>
</svg>
