<svg width="14" height="12" viewBox="0 0 14 12" fill="none" xmlns="http://www.w3.org/2000/svg">
<path fill-rule="evenodd" clip-rule="evenodd" d="M10.4091 11.7373C11.2306 12.0967 11.5387 11.3436 11.5387 11.3436L13.7123 0.424278C13.6952 -0.311665 12.7025 0.133324 12.7025 0.133324L0.533772 4.90839C0.533772 4.90839 -0.0481364 5.11377 0.00320842 5.47319C0.0545532 5.8326 0.516657 6.00375 0.516657 6.00375L3.58023 7.03065C3.58023 7.03065 4.50444 10.06 4.6927 10.6419C4.86385 11.2067 5.01789 11.2238 5.01789 11.2238C5.18904 11.2923 5.34307 11.1725 5.34307 11.1725L7.3284 9.37539L10.4091 11.7373ZM10.9396 2.35827C10.9396 2.35827 11.3674 2.10155 11.3503 2.35827C11.3503 2.35827 11.4188 2.3925 11.1963 2.63211C10.9909 2.83749 6.14737 7.18468 5.497 7.76659C5.44566 7.80082 5.41143 7.85217 5.41143 7.92063L5.22316 9.52943C5.18893 9.70058 4.96644 9.7177 4.91509 9.56366L4.11069 6.92796C4.07646 6.82527 4.11069 6.70547 4.21338 6.63701L10.9396 2.35827Z" fill="white"/>
</svg>
