<svg width="17" height="12" viewBox="0 0 17 12" fill="none" xmlns="http://www.w3.org/2000/svg">
<path fill-rule="evenodd" clip-rule="evenodd" d="M15.0013 1.33174C15.6746 1.513 16.2054 2.04382 16.3866 2.71707C16.7233 3.94703 16.7103 6.51054 16.7103 6.51054C16.7103 6.51054 16.7103 9.06109 16.3866 10.2911C16.2054 10.9643 15.6746 11.4951 15.0013 11.6764C13.7714 12.0001 8.8515 12.0001 8.8515 12.0001C8.8515 12.0001 3.94459 12.0001 2.70168 11.6634C2.02844 11.4822 1.49761 10.9514 1.31635 10.2781C0.992676 9.06109 0.992676 6.49759 0.992676 6.49759C0.992676 6.49759 0.992676 3.94703 1.31635 2.71707C1.49761 2.04382 2.04138 1.50005 2.70168 1.31879C3.93164 0.995117 8.8515 0.995117 8.8515 0.995117C8.8515 0.995117 13.7714 0.995117 15.0013 1.33174ZM11.3761 6.49756L7.28486 8.85391V4.14121L11.3761 6.49756Z" fill="white"/>
</svg>
