<svg width="17" height="11" viewBox="0 0 17 11" fill="none" xmlns="http://www.w3.org/2000/svg">
<path fill-rule="evenodd" clip-rule="evenodd" d="M16.4508 1.26742C16.5667 0.896588 16.4508 0.624023 15.8993 0.624023H14.076C13.6124 0.624023 13.3988 0.859453 13.2828 1.11914C13.2828 1.11914 12.3555 3.28877 11.042 4.6981C10.617 5.10607 10.4238 5.23573 10.192 5.23573C10.0761 5.23573 9.90836 5.10607 9.90836 4.73523V1.26742C9.90836 0.82232 9.77382 0.624023 9.38741 0.624023H6.52215C6.2325 0.624023 6.05824 0.830572 6.05824 1.02637C6.05824 1.44834 6.71491 1.54561 6.78263 2.73239V5.31012C6.78263 5.87525 6.67636 5.97777 6.44453 5.97777C5.82642 5.97777 4.32294 3.79826 3.43107 1.30456C3.25629 0.819819 3.08099 0.624023 2.61499 0.624023H0.79165C0.270695 0.624023 0.166504 0.859453 0.166504 1.11914C0.166504 1.58275 0.784747 3.88228 3.04478 6.92349C4.55164 9.00023 6.67427 10.1262 8.60597 10.1262C9.7651 10.1262 9.90836 9.87618 9.90836 9.44546V7.87572C9.90836 7.3756 10.0182 7.27583 10.385 7.27583C10.6557 7.27583 11.1192 7.40561 12.2011 8.40697C13.4373 9.59362 13.641 10.1262 14.3365 10.1262H16.1598C16.6808 10.1262 16.9413 9.87618 16.791 9.38269C16.6266 8.89083 16.0364 8.17741 15.2531 7.33146C14.8281 6.84923 14.1906 6.32998 13.9976 6.07042C13.7271 5.73659 13.8043 5.58831 13.9976 5.29174C13.9976 5.29174 16.2189 2.28754 16.4508 1.26755V1.26742Z" fill="white"/>
</svg>
